<svg xmlns="http://www.w3.org/2000/svg" xmlns:xlink="http://www.w3.org/1999/xlink" width="500" zoomAndPan="magnify" viewBox="0 0 375 374.999991" height="500" preserveAspectRatio="xMidYMid meet" version="1.0"><defs><clipPath id="e388cbba0f"><path d="M 164 37.5 L 210 37.5 L 210 93 L 164 93 Z M 164 37.5 " clip-rule="nonzero"/></clipPath><clipPath id="5c24b6d4a2"><path d="M 56.742188 219 L 80 219 L 80 246 L 56.742188 246 Z M 56.742188 219 " clip-rule="nonzero"/></clipPath><clipPath id="508695df56"><path d="M 294 218 L 318.492188 218 L 318.492188 246 L 294 246 Z M 294 218 " clip-rule="nonzero"/></clipPath><clipPath id="a7928e7cb9"><path d="M 137 303 L 236 303 L 236 309.75 L 137 309.75 Z M 137 303 " clip-rule="nonzero"/></clipPath></defs><path fill="#edd7b5" d="M 213.046875 228.078125 C 213.019531 228.058594 212.988281 228.042969 212.960938 228.019531 C 212.984375 228.042969 213.019531 228.058594 213.046875 228.078125 Z M 213.046875 228.078125 " fill-opacity="1" fill-rule="nonzero"/><path fill="#edd7b5" d="M 256.246094 183.5625 C 256.269531 183.589844 256.285156 183.625 256.304688 183.660156 C 256.285156 183.625 256.269531 183.589844 256.246094 183.5625 Z M 256.246094 183.5625 " fill-opacity="1" fill-rule="nonzero"/><path fill="#edd7b5" d="M 212.894531 227.929688 C 212.875 227.898438 212.851562 227.871094 212.835938 227.835938 C 212.851562 227.871094 212.875 227.898438 212.894531 227.929688 Z M 212.894531 227.929688 " fill-opacity="1" fill-rule="nonzero"/><path fill="#edd7b5" d="M 269.453125 227.988281 C 269.4375 228.011719 269.421875 228.039062 269.402344 228.058594 C 269.421875 228.039062 269.433594 228.011719 269.453125 227.988281 Z M 269.453125 227.988281 " fill-opacity="1" fill-rule="nonzero"/><path fill="#edd7b5" d="M 269.335938 228.101562 C 269.3125 228.117188 269.285156 228.136719 269.253906 228.148438 C 269.285156 228.140625 269.3125 228.121094 269.335938 228.101562 Z M 269.335938 228.101562 " fill-opacity="1" fill-rule="nonzero"/><path fill="#edd7b5" d="M 213.171875 228.15625 C 213.234375 228.179688 213.300781 228.191406 213.363281 228.191406 C 213.289062 228.191406 213.222656 228.171875 213.15625 228.144531 C 213.164062 228.148438 213.167969 228.15625 213.171875 228.15625 Z M 213.171875 228.15625 " fill-opacity="1" fill-rule="nonzero"/><path fill="#edd7b5" d="M 269.519531 227.839844 C 269.511719 227.867188 269.507812 227.894531 269.5 227.917969 C 269.507812 227.894531 269.511719 227.867188 269.519531 227.839844 Z M 269.519531 227.839844 " fill-opacity="1" fill-rule="nonzero"/><path fill="#edd7b5" d="M 239.707031 141.523438 C 239.777344 141.523438 239.847656 141.554688 239.910156 141.609375 C 239.851562 141.554688 239.78125 141.523438 239.707031 141.523438 Z M 239.707031 141.523438 " fill-opacity="1" fill-rule="nonzero"/><path fill="#edd7b5" d="M 256.359375 183.757812 C 256.367188 183.792969 256.371094 183.832031 256.375 183.871094 C 256.371094 183.832031 256.367188 183.792969 256.359375 183.757812 Z M 256.359375 183.757812 " fill-opacity="1" fill-rule="nonzero"/><path fill="#edd7b5" d="M 269.539062 227.730469 C 269.539062 227.683594 269.53125 227.636719 269.515625 227.589844 C 269.535156 227.640625 269.539062 227.695312 269.539062 227.75 C 269.539062 227.742188 269.539062 227.738281 269.539062 227.730469 Z M 269.539062 227.730469 " fill-opacity="1" fill-rule="nonzero"/><path fill="#edd7b5" d="M 239.910156 141.609375 C 239.9375 141.640625 239.960938 141.671875 239.980469 141.710938 C 239.960938 141.671875 239.9375 141.640625 239.910156 141.609375 Z M 239.910156 141.609375 " fill-opacity="1" fill-rule="nonzero"/><path fill="#edd7b5" d="M 256.078125 183.417969 C 256.066406 183.414062 256.054688 183.40625 256.042969 183.402344 C 256.085938 183.421875 256.117188 183.457031 256.152344 183.484375 C 256.128906 183.464844 256.109375 183.4375 256.078125 183.421875 Z M 256.078125 183.417969 " fill-opacity="1" fill-rule="nonzero"/><path fill="#edd7b5" d="M 256.386719 183.984375 C 256.382812 184.023438 256.367188 184.0625 256.359375 184.101562 C 256.367188 184.0625 256.382812 184.023438 256.386719 183.984375 Z M 256.386719 183.984375 " fill-opacity="1" fill-rule="nonzero"/><path fill="#edd7b5" d="M 239.601562 141.539062 C 239.570312 141.554688 239.539062 141.578125 239.515625 141.605469 C 239.5625 141.550781 239.632812 141.523438 239.703125 141.523438 C 239.667969 141.523438 239.632812 141.527344 239.601562 141.539062 Z M 239.601562 141.539062 " fill-opacity="1" fill-rule="nonzero"/><path fill="#edd7b5" d="M 212.808594 227.734375 C 212.800781 227.695312 212.789062 227.65625 212.789062 227.613281 C 212.789062 227.65625 212.800781 227.695312 212.808594 227.734375 Z M 212.808594 227.734375 " fill-opacity="1" fill-rule="nonzero"/><path fill="#edd7b5" d="M 296.871094 225.328125 C 296.074219 230.605469 294.480469 235.769531 292.09375 240.820312 C 285.960938 253.808594 276.285156 263.730469 263.070312 270.59375 C 256.84375 273.824219 250.5 276.222656 244.039062 277.777344 C 235.082031 279.929688 225.609375 281.652344 215.609375 282.9375 C 215.5 282.949219 215.417969 282.984375 215.359375 283.050781 C 215.210938 283.195312 215.261719 283.269531 215.503906 283.261719 C 221.03125 283.078125 226.542969 282.6875 232.039062 282.089844 C 242.90625 280.910156 253.234375 277.929688 263.03125 273.148438 C 274.804688 267.40625 284.136719 258.980469 291.03125 247.875 C 298.261719 236.226562 300.71875 223.15625 298.402344 208.667969 C 297.742188 204.5625 296.660156 200.957031 295.148438 197.851562 L 294.773438 198.089844 C 297.542969 207.152344 298.242188 216.234375 296.871094 225.328125 Z M 296.871094 225.328125 " fill-opacity="1" fill-rule="nonzero"/><g clip-path="url(#e388cbba0f)"><path fill="#edd7b5" d="M 182.378906 91.914062 C 186.378906 92.671875 190.441406 92.292969 194.566406 90.773438 C 201.5 88.21875 206.113281 83.3125 208.410156 76.054688 C 209.339844 73.113281 209.710938 70.175781 209.515625 67.242188 C 209.308594 64.160156 208.585938 61.242188 207.34375 58.480469 C 205.785156 55.011719 203.09375 51.636719 199.269531 48.355469 C 193.664062 43.546875 187.207031 40.015625 179.90625 37.761719 C 179.066406 37.503906 178.917969 37.71875 179.457031 38.414062 C 183.289062 43.324219 186.175781 48.847656 188.117188 54.988281 C 189.09375 58.089844 189.292969 60.617188 188.710938 62.5625 C 188.25 64.101562 187.355469 65.296875 186.027344 66.160156 C 184.742188 66.996094 183.589844 66.746094 182.574219 65.410156 C 182.546875 65.371094 182.511719 65.335938 182.472656 65.304688 C 182.199219 65.078125 181.792969 65.113281 181.566406 65.386719 C 180.871094 66.21875 180.625 67.316406 180.824219 68.683594 C 181.214844 71.390625 182.457031 73.238281 184.542969 74.234375 C 186.277344 75.050781 188.066406 75.203125 189.90625 74.6875 C 191.8125 74.152344 193.296875 72.886719 194.347656 70.894531 C 195.511719 68.691406 195.945312 66.339844 195.648438 63.832031 C 195.265625 60.632812 194.527344 57.671875 193.445312 54.949219 C 193.222656 54.382812 193.398438 54.195312 193.972656 54.386719 C 198.113281 55.761719 201.085938 58.101562 202.890625 61.410156 C 204.519531 64.394531 205.035156 67.867188 204.4375 71.832031 C 203.808594 76.019531 202 79.539062 199.007812 82.386719 C 196.105469 85.160156 192.757812 86.839844 188.960938 87.429688 C 184.410156 88.140625 180.15625 86.972656 176.195312 83.921875 C 172.96875 81.433594 170.894531 78.296875 169.976562 74.507812 C 169.117188 70.957031 169.421875 67.425781 170.890625 63.914062 C 172.75 59.46875 176.039062 56.085938 180.757812 53.777344 C 181.003906 53.65625 181.140625 53.527344 181.167969 53.386719 C 181.167969 53.367188 181.171875 53.351562 181.167969 53.332031 C 181.148438 53.175781 180.910156 53.054688 180.636719 53.058594 C 172.984375 53.25 168.042969 56.789062 165.820312 63.675781 C 163.167969 71.902344 164.929688 79.257812 171.109375 85.753906 C 174.222656 89.023438 177.980469 91.074219 182.378906 91.910156 Z M 182.378906 91.914062 " fill-opacity="1" fill-rule="nonzero"/></g><path fill="#edd7b5" d="M 190.726562 99.074219 C 190.726562 99.335938 190.703125 99.589844 190.652344 99.847656 C 190.601562 100.101562 190.527344 100.351562 190.425781 100.589844 C 190.328125 100.832031 190.203125 101.058594 190.058594 101.273438 C 189.914062 101.492188 189.75 101.691406 189.566406 101.875 C 189.382812 102.058594 189.183594 102.222656 188.96875 102.367188 C 188.75 102.511719 188.523438 102.636719 188.28125 102.734375 C 188.042969 102.835938 187.792969 102.910156 187.539062 102.960938 C 187.285156 103.011719 187.027344 103.035156 186.765625 103.035156 C 186.503906 103.035156 186.246094 103.011719 185.992188 102.960938 C 185.738281 102.910156 185.488281 102.835938 185.25 102.734375 C 185.007812 102.636719 184.78125 102.511719 184.5625 102.367188 C 184.347656 102.222656 184.148438 102.058594 183.964844 101.875 C 183.78125 101.691406 183.617188 101.492188 183.472656 101.273438 C 183.328125 101.058594 183.203125 100.832031 183.105469 100.589844 C 183.003906 100.351562 182.929688 100.101562 182.878906 99.847656 C 182.828125 99.589844 182.804688 99.335938 182.804688 99.074219 C 182.804688 98.8125 182.828125 98.554688 182.878906 98.300781 C 182.929688 98.046875 183.003906 97.796875 183.105469 97.558594 C 183.203125 97.316406 183.328125 97.089844 183.472656 96.871094 C 183.617188 96.65625 183.78125 96.457031 183.964844 96.273438 C 184.148438 96.089844 184.347656 95.921875 184.5625 95.777344 C 184.78125 95.632812 185.007812 95.511719 185.25 95.414062 C 185.488281 95.3125 185.738281 95.238281 185.992188 95.1875 C 186.246094 95.136719 186.503906 95.113281 186.765625 95.113281 C 187.027344 95.113281 187.285156 95.136719 187.539062 95.1875 C 187.792969 95.238281 188.042969 95.3125 188.28125 95.414062 C 188.523438 95.511719 188.75 95.632812 188.96875 95.777344 C 189.183594 95.921875 189.382812 96.089844 189.566406 96.273438 C 189.75 96.457031 189.914062 96.65625 190.058594 96.871094 C 190.203125 97.089844 190.328125 97.316406 190.425781 97.558594 C 190.527344 97.796875 190.601562 98.046875 190.652344 98.300781 C 190.703125 98.554688 190.726562 98.8125 190.726562 99.074219 Z M 190.726562 99.074219 " fill-opacity="1" fill-rule="nonzero"/><path fill="#edd7b5" d="M 102.511719 136.84375 C 107.875 137.417969 112.816406 136.265625 117.335938 133.382812 C 120.25 131.523438 122.75 129.410156 124.839844 127.046875 C 127.414062 124.121094 129.851562 121.449219 132.144531 119.03125 C 135.300781 115.699219 137.960938 113.261719 140.117188 111.714844 C 150.539062 104.265625 162.007812 103.679688 174.519531 109.949219 C 175.789062 110.582031 175.972656 111.480469 175.074219 112.632812 C 174.792969 112.996094 174.285156 113.085938 173.894531 112.847656 C 170.320312 110.660156 166.574219 109.175781 162.660156 108.394531 C 158.734375 107.613281 155.125 107.65625 151.820312 108.515625 C 148.234375 109.457031 144.96875 111.257812 142.023438 113.917969 C 138.203125 117.378906 136.484375 121.632812 136.855469 126.675781 C 136.871094 126.941406 136.785156 126.984375 136.59375 126.808594 C 134.214844 124.535156 131.761719 124.152344 129.230469 125.667969 C 128.082031 126.355469 127.261719 127.207031 126.773438 128.214844 C 126.214844 129.382812 126.128906 130.636719 126.515625 131.972656 C 127.328125 134.800781 129.179688 136.644531 132.070312 137.507812 C 132.324219 137.585938 132.601562 137.578125 132.851562 137.480469 C 136.332031 136.191406 138.035156 133.863281 137.972656 130.492188 C 137.953125 129.832031 138.183594 129.734375 138.660156 130.199219 C 142.144531 133.628906 145.167969 133.480469 147.734375 129.761719 C 148.59375 128.511719 148.277344 128.035156 146.789062 128.320312 C 145.535156 128.558594 144.609375 127.8125 144.007812 126.074219 C 143.601562 124.898438 143.589844 123.644531 143.972656 122.316406 C 144.273438 121.300781 144.871094 120.253906 145.765625 119.175781 C 149.761719 114.347656 155.089844 112.769531 161.753906 114.441406 C 165.355469 115.347656 168.304688 116.734375 170.605469 118.597656 C 172.621094 120.234375 175.078125 121.199219 177.976562 121.492188 C 178.011719 121.496094 178.042969 121.492188 178.078125 121.484375 C 178.226562 121.445312 178.316406 121.289062 178.277344 121.136719 C 176.980469 116.492188 178.082031 112.765625 181.589844 109.957031 C 183.882812 108.113281 186.277344 107.558594 188.773438 108.296875 C 190.9375 108.941406 192.726562 110.265625 194.144531 112.269531 C 195.996094 114.882812 196.363281 117.9375 195.257812 121.429688 C 195.246094 121.476562 195.242188 121.527344 195.25 121.578125 C 195.277344 121.753906 195.449219 121.875 195.625 121.84375 C 198.484375 121.355469 201.042969 120.34375 203.304688 118.808594 C 205.171875 117.539062 206.113281 116.902344 206.128906 116.898438 C 210.007812 114.679688 213.980469 113.671875 218.050781 113.871094 C 223.578125 114.148438 227.414062 116.726562 229.5625 121.609375 C 230.207031 123.066406 230.464844 124.324219 230.335938 125.375 C 230.113281 127.160156 228.925781 128.085938 226.78125 128.160156 C 226.695312 128.160156 226.609375 128.183594 226.53125 128.21875 C 226.21875 128.367188 226.085938 128.746094 226.234375 129.0625 C 228.332031 133.492188 231.304688 134.089844 235.144531 130.851562 C 235.191406 130.816406 235.246094 130.789062 235.300781 130.777344 C 235.503906 130.734375 235.703125 130.859375 235.746094 131.0625 C 236.398438 134.226562 238.300781 136.320312 241.460938 137.34375 C 241.714844 137.429688 241.988281 137.433594 242.242188 137.355469 C 244.566406 136.632812 246.21875 135.148438 247.195312 132.902344 C 248.054688 130.941406 247.964844 129.207031 246.9375 127.703125 C 244.398438 123.992188 241.332031 123.550781 237.742188 126.378906 C 237.535156 126.546875 237.429688 126.5 237.421875 126.238281 C 237.363281 120.710938 235.125 116.234375 230.710938 112.804688 C 225 108.367188 218.605469 106.886719 211.53125 108.355469 C 207.367188 109.222656 203.371094 110.789062 199.546875 113.050781 C 199.335938 113.175781 199.0625 113.136719 198.894531 112.953125 C 198.390625 112.390625 198.046875 111.824219 197.863281 111.261719 C 197.789062 111.050781 197.90625 110.808594 198.132812 110.707031 C 199.609375 110.066406 201.078125 109.410156 202.542969 108.738281 C 210.6875 105.011719 218.6875 104.652344 226.539062 107.664062 C 229.253906 108.710938 231.984375 110.253906 234.722656 112.300781 C 237.257812 114.1875 239.601562 116.304688 241.761719 118.648438 C 243.59375 120.636719 245.429688 122.621094 247.269531 124.601562 C 247.296875 124.636719 247.972656 125.394531 249.296875 126.882812 C 253.195312 131.273438 257.984375 134.351562 263.65625 136.109375 C 266.867188 137.101562 270.128906 137.308594 273.4375 136.726562 C 277.652344 135.984375 281 134.078125 283.476562 131.007812 C 285.050781 129.054688 286.003906 126.976562 286.339844 124.773438 C 286.753906 122.074219 286.121094 119.730469 284.453125 117.746094 C 282.761719 115.738281 280.640625 114.648438 278.097656 114.472656 C 274.929688 114.253906 272.679688 115.886719 271.34375 119.363281 C 270.710938 121.023438 270.875 122.511719 271.839844 123.832031 C 272.6875 124.984375 273.773438 125.636719 275.09375 125.785156 C 276.640625 125.953125 277.78125 125.167969 278.511719 123.433594 C 278.59375 123.238281 278.667969 122.957031 278.738281 122.59375 C 278.960938 121.425781 279.289062 121.304688 279.714844 122.21875 C 279.839844 122.480469 279.894531 122.753906 279.878906 123.050781 C 279.808594 124.535156 279.285156 125.765625 278.308594 126.734375 C 275.683594 129.34375 272.414062 130.511719 268.503906 130.242188 C 264.957031 130 261.988281 128.863281 259.59375 126.839844 C 256.285156 124.035156 252.679688 120.386719 248.78125 115.890625 C 244.121094 110.515625 238.664062 106.335938 232.417969 103.351562 C 228.066406 101.273438 223.789062 100.050781 219.578125 99.6875 C 215.058594 99.304688 210.550781 99.757812 206.046875 101.054688 C 203.285156 101.851562 200.808594 103.171875 198.617188 105.007812 C 197.679688 105.800781 197.011719 106.867188 196.617188 108.207031 C 196.605469 108.257812 196.578125 108.300781 196.546875 108.339844 C 196.425781 108.488281 196.203125 108.511719 196.054688 108.386719 C 189.710938 103.289062 183.582031 103.199219 177.675781 108.117188 C 177.648438 108.140625 177.617188 108.15625 177.582031 108.164062 C 177.449219 108.199219 177.308594 108.117188 177.269531 107.980469 C 176.726562 105.96875 175.335938 104.40625 173.09375 103.292969 C 168.160156 100.839844 163.34375 99.578125 158.652344 99.507812 C 151.738281 99.410156 145.316406 101.105469 139.394531 104.59375 C 134.316406 107.585938 129.824219 111.289062 125.917969 115.710938 C 123.628906 118.300781 121.292969 120.847656 118.90625 123.347656 C 116.628906 125.730469 114.128906 127.574219 111.410156 128.875 C 106.402344 131.265625 101.660156 130.824219 97.171875 127.542969 C 95.617188 126.40625 94.757812 124.898438 94.601562 123.007812 C 94.574219 122.722656 94.628906 122.476562 94.765625 122.277344 C 95.117188 121.761719 95.445312 121.914062 95.75 122.730469 C 96.441406 124.609375 97.585938 125.515625 99.175781 125.449219 C 100.457031 125.394531 101.507812 124.777344 102.332031 123.59375 C 103.308594 122.207031 103.511719 120.71875 102.941406 119.136719 C 102.484375 117.871094 101.625 116.792969 100.363281 115.898438 C 98.382812 114.492188 96.277344 114.140625 94.046875 114.847656 C 92.148438 115.449219 90.609375 116.648438 89.425781 118.433594 C 87.539062 121.289062 87.441406 124.429688 89.132812 127.855469 C 91.757812 133.167969 96.214844 136.160156 102.511719 136.839844 Z M 132.167969 134.914062 C 129.796875 134.914062 127.875 132.992188 127.875 130.617188 C 127.875 128.246094 129.796875 126.320312 132.167969 126.320312 C 134.542969 126.320312 136.464844 128.246094 136.464844 130.617188 C 136.464844 132.992188 134.542969 134.914062 132.167969 134.914062 Z M 241.828125 126.347656 C 244.1875 126.347656 246.097656 128.257812 246.097656 130.617188 C 246.097656 132.976562 244.1875 134.890625 241.828125 134.890625 C 239.46875 134.890625 237.554688 132.976562 237.554688 130.617188 C 237.554688 128.257812 239.46875 126.347656 241.828125 126.347656 Z M 241.828125 126.347656 " fill-opacity="1" fill-rule="nonzero"/><path fill="#edd7b5" d="M 136.871094 254.765625 C 149.011719 253.347656 158.59375 247.304688 165.617188 236.640625 C 165.964844 236.113281 166.464844 235.242188 167.125 234.027344 C 167.601562 233.144531 168.109375 232.277344 168.652344 231.429688 C 168.785156 231.230469 169 231.074219 169.261719 230.984375 L 172.769531 229.8125 C 173.027344 229.730469 173.230469 229.542969 173.324219 229.304688 C 173.632812 228.542969 173.152344 228.238281 171.875 228.394531 C 170.113281 228.617188 167.992188 228.523438 165.511719 228.109375 C 165.277344 228.070312 165.09375 227.882812 165.050781 227.636719 C 164.78125 226.179688 164.164062 224.90625 163.203125 223.8125 C 163.035156 223.621094 162.960938 223.367188 162.992188 223.113281 C 163.210938 221.507812 162.75 220.171875 161.605469 219.101562 C 161.421875 218.929688 161.339844 218.683594 161.378906 218.445312 C 161.730469 216.5 161.199219 214.890625 159.785156 213.609375 C 159.597656 213.4375 159.515625 213.1875 159.566406 212.945312 C 159.945312 211.164062 159.476562 209.691406 158.15625 208.519531 C 157.96875 208.351562 157.882812 208.101562 157.929688 207.859375 C 158.210938 206.296875 157.761719 205.003906 156.578125 203.984375 C 156.390625 203.824219 156.289062 203.578125 156.308594 203.328125 C 156.457031 201.5 155.96875 199.859375 154.84375 198.402344 C 154.683594 198.199219 154.609375 197.941406 154.640625 197.6875 C 154.785156 196.523438 154.605469 195.433594 154.113281 194.425781 C 154.019531 194.234375 153.828125 194.042969 153.566406 193.878906 C 153.128906 193.609375 152.824219 193.242188 152.65625 192.773438 C 152.582031 192.574219 152.59375 192.300781 152.6875 192 C 153.148438 190.539062 152.757812 189.367188 151.515625 188.488281 C 151.320312 188.355469 151.21875 188.113281 151.257812 187.878906 C 151.566406 185.988281 151 184.472656 149.5625 183.328125 C 149.378906 183.183594 149.308594 182.933594 149.375 182.703125 C 149.953125 180.851562 149.429688 179.40625 147.8125 178.363281 C 147.617188 178.234375 147.527344 177.992188 147.601562 177.769531 C 148.1875 176.058594 147.925781 174.675781 146.820312 173.621094 C 146.261719 173.097656 145.992188 172.332031 146.105469 171.570312 C 146.375 169.742188 145.882812 168.480469 144.625 167.785156 C 144.425781 167.679688 144.316406 167.460938 144.347656 167.234375 C 144.621094 165.195312 144.089844 163.671875 142.761719 162.667969 C 142.582031 162.53125 142.523438 162.28125 142.621094 162.074219 C 143.292969 160.664062 143.007812 159.445312 141.757812 158.414062 C 141.308594 158.039062 141.085938 157.457031 141.171875 156.882812 C 141.414062 155.308594 140.96875 154.011719 139.839844 152.984375 C 139.664062 152.824219 139.597656 152.578125 139.660156 152.34375 C 139.90625 151.476562 139.65625 150.789062 138.921875 150.28125 C 137.761719 153.183594 136.792969 153.132812 136.015625 150.128906 C 135.949219 149.867188 136.011719 149.601562 136.179688 149.417969 C 137.308594 148.199219 138.222656 148.488281 138.921875 150.28125 C 139.109375 149.664062 139.136719 149.066406 138.992188 148.484375 C 138.9375 148.261719 138.773438 148.042969 138.53125 147.867188 C 137.453125 147.078125 137.125 146.046875 137.554688 144.765625 C 137.636719 144.519531 137.601562 144.257812 137.457031 144.058594 C 136.441406 142.625 135.855469 141.035156 135.699219 139.289062 C 135.671875 138.996094 135.609375 138.746094 135.503906 138.53125 C 134.894531 137.234375 134.542969 137.359375 134.464844 138.898438 C 134.441406 139.242188 134.382812 139.492188 134.285156 139.65625 C 134.074219 139.988281 133.785156 140.0625 133.421875 139.882812 C 133.234375 139.789062 133.0625 139.570312 132.941406 139.273438 C 132.492188 138.128906 132.050781 138.546875 131.625 140.527344 C 131.625 140.53125 131.625 140.53125 131.621094 140.535156 C 131.570312 140.789062 131.3125 140.949219 131.046875 140.894531 C 130.082031 140.675781 129.792969 140.132812 130.183594 139.257812 C 130.304688 138.984375 130.324219 138.714844 130.230469 138.519531 C 129.957031 137.964844 129.585938 137.824219 129.125 138.09375 C 128.914062 138.214844 128.769531 138.457031 128.734375 138.746094 C 128.652344 139.515625 128.769531 140.242188 129.085938 140.925781 C 129.222656 141.234375 129.128906 141.59375 128.863281 141.796875 C 127.136719 143.09375 126.546875 144.753906 127.097656 146.777344 C 127.199219 147.140625 127.011719 147.519531 126.660156 147.664062 C 125.300781 148.210938 124.878906 149.335938 125.398438 151.042969 C 125.550781 151.527344 125.378906 152.054688 124.976562 152.359375 C 123.707031 153.320312 123.183594 154.730469 123.40625 156.589844 C 123.4375 156.851562 123.371094 157.113281 123.21875 157.324219 C 122.269531 158.65625 121.847656 160.160156 121.949219 161.832031 C 121.96875 162.082031 121.871094 162.332031 121.679688 162.507812 C 120.242188 163.835938 119.765625 165.449219 120.246094 167.347656 C 120.308594 167.574219 120.214844 167.8125 120.019531 167.949219 C 118.558594 168.992188 118.144531 170.351562 118.773438 172.027344 C 118.859375 172.246094 118.785156 172.492188 118.597656 172.621094 C 116.957031 173.707031 116.433594 175.214844 117.027344 177.152344 C 117.09375 177.386719 117.023438 177.636719 116.839844 177.789062 C 115.421875 178.992188 114.875 180.710938 115.195312 182.9375 C 115.226562 183.160156 115.136719 183.375 114.960938 183.507812 C 113.375 184.648438 112.964844 186.0625 113.722656 187.753906 C 113.816406 187.957031 113.738281 188.199219 113.542969 188.316406 C 111.894531 189.292969 111.34375 190.707031 111.894531 192.5625 C 111.960938 192.792969 111.875 193.035156 111.679688 193.167969 C 110.109375 194.242188 109.707031 195.691406 110.476562 197.519531 C 110.5625 197.722656 110.476562 197.960938 110.273438 198.0625 C 108.609375 198.957031 107.996094 200.425781 108.4375 202.464844 C 108.535156 202.929688 108.367188 203.414062 108.003906 203.71875 C 106.578125 204.929688 106.179688 206.253906 106.808594 207.691406 C 106.929688 207.96875 106.933594 208.246094 106.816406 208.421875 C 106.6875 208.621094 106.515625 208.773438 106.296875 208.886719 C 105.964844 209.054688 105.75 209.199219 105.644531 209.316406 C 104.683594 210.4375 104.539062 211.695312 105.207031 213.09375 C 105.3125 213.304688 105.238281 213.566406 105.035156 213.695312 C 103.09375 214.917969 102.59375 216.429688 103.539062 218.234375 C 103.558594 218.273438 103.570312 218.308594 103.582031 218.347656 C 103.65625 218.640625 103.484375 218.9375 103.195312 219.007812 C 101.710938 219.410156 101.136719 220.402344 101.472656 221.988281 C 101.550781 222.355469 101.460938 222.863281 101.222656 223.402344 L 99.292969 227.738281 C 99.171875 228.003906 98.988281 228.1875 98.8125 228.210938 C 97.417969 228.449219 96.011719 228.496094 94.589844 228.351562 C 92.804688 228.164062 92.199219 228.523438 92.773438 229.425781 C 92.964844 229.730469 93.328125 230.003906 93.867188 230.246094 C 95.140625 230.820312 95.988281 231.5625 96.414062 232.46875 C 101.609375 243.570312 109.722656 250.621094 120.757812 253.621094 C 125.949219 255.039062 131.320312 255.421875 136.875 254.769531 Z M 162.371094 224.839844 C 162.625 224.847656 162.875 224.96875 163.054688 225.183594 C 163.527344 225.75 163.765625 226.414062 163.765625 227.175781 C 163.765625 227.429688 163.609375 227.65625 163.375 227.746094 C 162.984375 227.890625 162.613281 227.933594 162.257812 227.875 C 162 227.824219 161.789062 227.636719 161.707031 227.378906 C 161.140625 225.675781 161.363281 224.828125 162.371094 224.839844 Z M 161.699219 221.527344 C 161.792969 222.511719 161.359375 223.359375 160.734375 223.417969 C 160.105469 223.476562 159.523438 222.726562 159.433594 221.742188 C 159.339844 220.757812 159.769531 219.910156 160.398438 219.851562 C 161.023438 219.792969 161.605469 220.542969 161.699219 221.527344 Z M 160.074219 216.039062 C 160.46875 216.902344 160.304688 217.824219 159.703125 218.101562 C 159.105469 218.375 158.296875 217.902344 157.902344 217.039062 C 157.503906 216.179688 157.671875 215.257812 158.269531 214.980469 C 158.871094 214.703125 159.679688 215.179688 160.074219 216.039062 Z M 158.554688 210.910156 C 158.796875 211.796875 158.472656 212.660156 157.832031 212.835938 C 157.191406 213.011719 156.476562 212.433594 156.230469 211.542969 C 155.988281 210.65625 156.3125 209.792969 156.953125 209.617188 C 157.59375 209.445312 158.3125 210.019531 158.554688 210.910156 Z M 156.664062 205.828125 C 157.050781 206.6875 156.882812 207.59375 156.296875 207.855469 C 155.710938 208.117188 154.925781 207.636719 154.539062 206.78125 C 154.15625 205.921875 154.320312 205.015625 154.910156 204.75 C 155.496094 204.488281 156.28125 204.972656 156.664062 205.828125 Z M 155.121094 200.640625 C 155.601562 201.546875 155.566406 202.503906 155.042969 202.785156 C 154.519531 203.0625 153.703125 202.554688 153.222656 201.652344 C 152.742188 200.746094 152.777344 199.789062 153.300781 199.507812 C 153.824219 199.230469 154.640625 199.738281 155.121094 200.640625 Z M 153.558594 195.636719 C 153.960938 196.609375 153.785156 197.601562 153.167969 197.855469 C 152.554688 198.105469 151.730469 197.523438 151.332031 196.550781 C 150.933594 195.574219 151.109375 194.582031 151.722656 194.332031 C 152.339844 194.078125 153.164062 194.664062 153.558594 195.636719 Z M 151.851562 190.628906 C 152.207031 191.519531 151.960938 192.457031 151.304688 192.722656 C 150.644531 192.984375 149.820312 192.476562 149.464844 191.582031 C 149.105469 190.6875 149.351562 189.75 150.011719 189.488281 C 150.667969 189.226562 151.492188 189.734375 151.851562 190.628906 Z M 150.183594 185.691406 C 150.546875 186.648438 150.316406 187.625 149.667969 187.875 C 149.015625 188.125 148.191406 187.546875 147.828125 186.589844 C 147.460938 185.632812 147.691406 184.65625 148.34375 184.410156 C 148.992188 184.160156 149.816406 184.734375 150.183594 185.691406 Z M 148.441406 180.699219 C 148.679688 181.660156 148.375 182.558594 147.757812 182.710938 C 147.144531 182.863281 146.453125 182.210938 146.214844 181.25 C 145.976562 180.289062 146.285156 179.390625 146.898438 179.238281 C 147.515625 179.085938 148.207031 179.738281 148.441406 180.699219 Z M 146.789062 175.167969 C 147.1875 176.042969 146.984375 176.992188 146.332031 177.292969 C 145.679688 177.59375 144.824219 177.128906 144.421875 176.253906 C 144.019531 175.382812 144.222656 174.429688 144.875 174.128906 C 145.53125 173.828125 146.386719 174.292969 146.789062 175.167969 Z M 145.316406 170.328125 C 145.503906 171.421875 145.046875 172.414062 144.300781 172.539062 C 143.550781 172.667969 142.792969 171.886719 142.605469 170.792969 C 142.417969 169.699219 142.875 168.707031 143.625 168.578125 C 144.375 168.453125 145.128906 169.234375 145.316406 170.328125 Z M 143.453125 165.039062 C 143.710938 166.101562 143.382812 167.089844 142.722656 167.25 C 142.066406 167.410156 141.320312 166.679688 141.066406 165.617188 C 140.808594 164.554688 141.136719 163.566406 141.796875 163.40625 C 142.457031 163.246094 143.199219 163.976562 143.453125 165.039062 Z M 141.84375 159.90625 C 142.109375 160.914062 141.777344 161.878906 141.101562 162.058594 C 140.425781 162.238281 139.65625 161.566406 139.390625 160.558594 C 139.121094 159.554688 139.453125 158.589844 140.132812 158.410156 C 140.808594 158.230469 141.574219 158.902344 141.84375 159.90625 Z M 137.832031 154.019531 C 138 153.578125 138.496094 153.355469 138.933594 153.523438 C 138.992188 153.542969 139.042969 153.570312 139.09375 153.601562 C 140.058594 154.226562 140.417969 155.121094 140.167969 156.28125 C 140.070312 156.75 139.605469 157.050781 139.136719 156.949219 C 139.027344 156.925781 138.917969 156.882812 138.828125 156.816406 C 137.742188 156.085938 137.410156 155.152344 137.832031 154.019531 Z M 136.839844 145.539062 C 137.105469 146.714844 136.753906 147.519531 135.792969 147.957031 C 135.570312 148.054688 135.308594 147.972656 135.183594 147.769531 C 134.765625 147.101562 134.625 146.378906 134.765625 145.597656 C 134.8125 145.320312 134.972656 145.089844 135.199219 144.976562 C 135.59375 144.773438 135.988281 144.757812 136.386719 144.9375 C 136.609375 145.039062 136.777344 145.261719 136.839844 145.539062 Z M 134.144531 140.992188 C 134.75 140.746094 135.527344 141.25 135.875 142.117188 C 136.222656 142.984375 136.011719 143.886719 135.40625 144.132812 C 134.796875 144.378906 134.019531 143.871094 133.671875 143.003906 C 133.324219 142.136719 133.535156 141.234375 134.144531 140.992188 Z M 127.910156 144.933594 C 128.214844 143.707031 129 142.847656 129.65625 143.011719 C 130.316406 143.175781 130.601562 144.300781 130.296875 145.527344 C 129.992188 146.753906 129.207031 147.613281 128.550781 147.449219 C 127.890625 147.285156 127.605469 146.160156 127.910156 144.933594 Z M 126.15625 150.382812 C 126.257812 149.308594 126.910156 148.492188 127.617188 148.558594 C 128.324219 148.628906 128.816406 149.550781 128.714844 150.625 C 128.613281 151.699219 127.957031 152.515625 127.25 152.449219 C 126.542969 152.378906 126.054688 151.457031 126.15625 150.382812 Z M 124.359375 155.328125 C 124.542969 154.191406 125.277344 153.359375 126 153.476562 C 126.722656 153.589844 127.160156 154.609375 126.976562 155.75 C 126.792969 156.890625 126.058594 157.71875 125.335938 157.605469 C 124.613281 157.488281 124.175781 156.46875 124.359375 155.328125 Z M 123.007812 159.589844 C 123.664062 157.632812 124.34375 157.53125 125.042969 159.28125 C 125.703125 160.949219 125.257812 161.972656 123.707031 162.359375 C 123.46875 162.414062 123.226562 162.300781 123.121094 162.082031 C 122.746094 161.300781 122.710938 160.46875 123.007812 159.589844 Z M 120.960938 165.246094 C 121.089844 164.230469 121.796875 163.484375 122.535156 163.578125 C 123.277344 163.671875 123.769531 164.574219 123.640625 165.589844 C 123.507812 166.605469 122.804688 167.351562 122.0625 167.257812 C 121.324219 167.164062 120.828125 166.261719 120.960938 165.246094 Z M 119.597656 170.136719 C 119.914062 169.109375 120.699219 168.441406 121.351562 168.644531 C 122.003906 168.847656 122.277344 169.84375 121.960938 170.867188 C 121.640625 171.894531 120.855469 172.5625 120.203125 172.359375 C 119.550781 172.160156 119.277344 171.164062 119.597656 170.136719 Z M 117.890625 175.21875 C 118.097656 174.246094 118.824219 173.578125 119.507812 173.722656 C 120.191406 173.867188 120.582031 174.773438 120.375 175.746094 C 120.167969 176.71875 119.445312 177.386719 118.757812 177.242188 C 118.074219 177.097656 117.683594 176.191406 117.890625 175.21875 Z M 116.304688 180.15625 C 116.65625 179.191406 117.46875 178.605469 118.117188 178.839844 C 118.765625 179.078125 119.011719 180.050781 118.660156 181.011719 C 118.308594 181.976562 117.496094 182.5625 116.847656 182.328125 C 116.199219 182.089844 115.953125 181.117188 116.304688 180.15625 Z M 114.691406 185.46875 C 114.933594 184.445312 115.636719 183.734375 116.257812 183.882812 C 116.878906 184.03125 117.183594 184.980469 116.9375 186.003906 C 116.695312 187.027344 115.996094 187.734375 115.375 187.585938 C 114.753906 187.4375 114.449219 186.488281 114.691406 185.46875 Z M 112.921875 190.628906 C 113.160156 189.667969 113.871094 189.015625 114.507812 189.171875 C 115.144531 189.332031 115.464844 190.242188 115.226562 191.207031 C 114.984375 192.167969 114.273438 192.820312 113.640625 192.664062 C 113.003906 192.503906 112.683594 191.59375 112.921875 190.628906 Z M 111.214844 195.679688 C 111.40625 194.671875 112.113281 193.960938 112.792969 194.09375 C 113.472656 194.222656 113.867188 195.140625 113.675781 196.148438 C 113.484375 197.15625 112.777344 197.867188 112.097656 197.738281 C 111.417969 197.605469 111.023438 196.6875 111.214844 195.679688 Z M 109.359375 200.710938 C 109.609375 199.816406 110.351562 199.238281 111.019531 199.425781 C 111.6875 199.613281 112.023438 200.488281 111.773438 201.382812 C 111.523438 202.28125 110.78125 202.855469 110.113281 202.667969 C 109.445312 202.484375 109.109375 201.605469 109.359375 200.710938 Z M 107.636719 206.148438 C 107.746094 205.175781 108.386719 204.449219 109.070312 204.523438 C 109.753906 204.601562 110.21875 205.453125 110.109375 206.425781 C 110 207.398438 109.359375 208.125 108.675781 208.050781 C 107.992188 207.972656 107.527344 207.121094 107.636719 206.148438 Z M 106.109375 210.851562 C 106.460938 209.878906 107.269531 209.28125 107.910156 209.515625 C 108.550781 209.75 108.785156 210.726562 108.433594 211.699219 C 108.078125 212.667969 107.269531 213.269531 106.628906 213.03125 C 105.988281 212.800781 105.753906 211.824219 106.109375 210.851562 Z M 104.3125 215.886719 C 104.609375 214.902344 105.386719 214.261719 106.046875 214.460938 C 106.710938 214.660156 107.007812 215.621094 106.710938 216.605469 C 106.414062 217.59375 105.636719 218.230469 104.976562 218.03125 C 104.3125 217.832031 104.015625 216.871094 104.308594 215.886719 Z M 103.179688 226.738281 C 102.890625 227.683594 102.101562 228.28125 101.414062 228.074219 C 100.726562 227.867188 100.398438 226.929688 100.6875 225.984375 C 100.972656 225.039062 101.761719 224.441406 102.449219 224.648438 C 103.136719 224.855469 103.464844 225.789062 103.175781 226.738281 Z M 102.574219 221.421875 C 102.621094 221.164062 102.769531 220.929688 102.988281 220.761719 C 105.121094 219.15625 105.570312 219.832031 104.339844 222.789062 C 104.242188 223.03125 104.027344 223.199219 103.785156 223.21875 C 102.746094 223.304688 102.339844 222.707031 102.574219 221.421875 Z M 105.03125 228.148438 C 104.457031 228.140625 104 227.65625 104.015625 227.0625 C 104.019531 226.945312 104.039062 226.828125 104.078125 226.71875 L 106.046875 221.0625 C 106.113281 220.867188 106.105469 220.589844 106.023438 220.28125 C 105.804688 219.511719 106.109375 218.808594 106.933594 218.171875 C 107.945312 217.398438 108.210938 216.320312 107.742188 214.933594 C 107.660156 214.703125 107.710938 214.449219 107.871094 214.269531 C 108.417969 213.648438 108.828125 212.945312 109.101562 212.160156 C 109.121094 212.09375 109.292969 211.722656 109.613281 211.046875 C 109.824219 210.589844 109.824219 210.117188 109.613281 209.628906 C 109.519531 209.40625 109.550781 209.152344 109.703125 208.980469 C 110.582031 207.96875 111.035156 206.671875 111.058594 205.089844 C 111.066406 204.671875 111.195312 204.265625 111.425781 203.925781 C 112.523438 202.339844 112.949219 200.933594 112.710938 199.695312 C 112.667969 199.449219 112.738281 199.195312 112.90625 199.011719 C 114.144531 197.664062 114.679688 196.285156 114.519531 194.867188 C 114.507812 194.792969 114.519531 194.71875 114.550781 194.648438 C 115.691406 192.300781 116.1875 190.410156 116.039062 188.976562 C 116.019531 188.734375 116.140625 188.503906 116.347656 188.382812 C 117.867188 187.488281 118.316406 186.039062 117.699219 184.03125 C 117.621094 183.792969 117.707031 183.53125 117.910156 183.386719 C 119.515625 182.253906 120.109375 180.707031 119.691406 178.75 C 119.640625 178.507812 119.714844 178.257812 119.886719 178.082031 C 121.125 176.867188 121.550781 175.410156 121.171875 173.714844 C 121.117188 173.476562 121.203125 173.226562 121.390625 173.078125 C 122.753906 172.015625 123.222656 170.597656 122.800781 168.824219 C 122.746094 168.59375 122.832031 168.351562 123.019531 168.195312 C 124.121094 167.296875 124.585938 165.902344 124.410156 164.023438 C 124.382812 163.671875 124.546875 163.339844 124.835938 163.152344 C 126.09375 162.335938 126.546875 161.09375 126.195312 159.417969 C 126.140625 159.167969 126.195312 158.910156 126.339844 158.703125 C 127.402344 157.160156 127.953125 155.453125 127.984375 153.585938 C 127.988281 153.324219 128.082031 153.074219 128.246094 152.867188 C 129.226562 151.640625 129.683594 150.445312 129.613281 149.28125 C 129.570312 148.5625 129.800781 147.859375 130.261719 147.304688 C 131.863281 145.40625 132 143.777344 130.667969 142.421875 C 130.488281 142.234375 130.445312 141.964844 130.574219 141.785156 C 130.832031 141.417969 131.199219 141.28125 131.671875 141.371094 C 131.902344 141.414062 132.117188 141.589844 132.25 141.84375 C 133.355469 143.984375 134.105469 146.035156 134.496094 147.996094 C 134.875 149.871094 135.585938 151.476562 136.628906 152.8125 C 136.78125 153.011719 136.824219 153.273438 136.75 153.511719 C 136.171875 155.339844 136.707031 156.710938 138.351562 157.621094 C 138.554688 157.734375 138.65625 157.972656 138.585938 158.199219 C 137.984375 160.257812 138.511719 161.898438 140.164062 163.121094 C 140.355469 163.261719 140.4375 163.507812 140.371094 163.730469 C 139.925781 165.277344 140.230469 166.660156 141.289062 167.878906 C 141.460938 168.078125 141.550781 168.335938 141.542969 168.59375 C 141.480469 170.394531 142.011719 171.984375 143.128906 173.363281 C 143.296875 173.566406 143.378906 173.824219 143.363281 174.078125 C 143.300781 175.308594 143.507812 176.492188 143.992188 177.625 C 144.085938 177.839844 144.289062 178.011719 144.550781 178.097656 C 145.367188 178.371094 145.6875 178.839844 145.519531 179.507812 C 145.300781 180.386719 145.191406 180.855469 145.195312 180.914062 C 145.238281 182.101562 145.796875 183.03125 146.863281 183.699219 C 147.054688 183.8125 147.128906 184.054688 147.042969 184.269531 C 146.375 185.902344 146.859375 187.40625 148.492188 188.785156 C 148.722656 188.976562 148.820312 189.289062 148.734375 189.582031 C 148.125 191.632812 148.660156 193.054688 150.347656 193.851562 C 150.550781 193.949219 150.652344 194.183594 150.574219 194.398438 C 150.003906 196.003906 150.355469 197.433594 151.625 198.6875 C 151.996094 199.054688 152.148438 199.589844 152.015625 200.09375 C 151.648438 201.476562 151.917969 202.542969 152.832031 203.292969 C 153.253906 203.640625 153.492188 203.933594 153.546875 204.171875 C 153.609375 204.445312 153.601562 204.730469 153.523438 205.015625 C 153.417969 205.375 153.375 205.644531 153.390625 205.820312 C 153.496094 206.902344 153.875 207.878906 154.539062 208.75 C 154.699219 208.964844 154.785156 209.214844 154.789062 209.46875 C 154.824219 210.8125 155.175781 212.042969 155.847656 213.152344 C 155.933594 213.292969 156.152344 213.464844 156.449219 213.625 C 156.71875 213.769531 156.824219 214 156.777344 214.308594 C 156.464844 216.222656 156.867188 217.835938 157.980469 219.140625 C 158.15625 219.347656 158.261719 219.59375 158.28125 219.839844 C 158.527344 222.246094 159.253906 224.527344 160.46875 226.683594 C 160.742188 227.171875 160.574219 227.785156 160.085938 228.058594 C 159.941406 228.144531 159.773438 228.1875 159.605469 228.191406 C 141.222656 228.492188 123.03125 228.480469 105.035156 228.148438 Z M 105.03125 228.148438 " fill-opacity="1" fill-rule="nonzero"/><path fill="#edd7b5" d="M 212.023438 216.566406 C 211.445312 218.71875 210.824219 220.855469 210.148438 222.976562 C 210.046875 223.292969 209.714844 224.054688 209.148438 225.269531 C 208.78125 226.078125 208.566406 226.890625 208.507812 227.710938 C 208.480469 228.105469 208.152344 228.410156 207.757812 228.402344 C 205.40625 228.375 203.199219 228.386719 201.144531 228.4375 C 200.867188 228.449219 200.664062 228.511719 200.535156 228.632812 C 200.285156 228.863281 200.347656 229.128906 200.722656 229.429688 C 201.675781 230.199219 202.519531 230.59375 203.25 230.617188 C 204.167969 230.636719 204.832031 231.058594 205.246094 231.875 C 211.765625 244.808594 221.933594 252.394531 235.746094 254.632812 C 244.886719 256.113281 253.476562 254.515625 261.507812 249.839844 C 264.789062 247.925781 267.59375 245.6875 269.921875 243.128906 C 272.375 240.433594 274.390625 237.398438 275.96875 234.03125 C 276.671875 232.527344 278.101562 230.972656 280.25 229.359375 C 280.976562 228.8125 280.988281 228.445312 280.289062 228.261719 C 280.082031 228.207031 279.8125 228.199219 279.484375 228.238281 C 278.339844 228.375 276.945312 228.417969 275.308594 228.367188 C 274.601562 228.34375 273.953125 227.882812 273.640625 227.179688 L 271.726562 222.851562 C 271.621094 222.601562 271.578125 222.347656 271.605469 222.09375 C 271.675781 221.308594 271.566406 220.5625 271.273438 219.863281 C 271.183594 219.660156 270.988281 219.472656 270.71875 219.335938 C 269.9375 218.933594 269.695312 218.230469 269.988281 217.21875 C 270.3125 216.074219 270.054688 215.125 269.222656 214.363281 C 268.726562 213.914062 268.453125 213.269531 268.472656 212.597656 C 268.542969 210.464844 267.867188 209.070312 266.441406 208.40625 C 266.246094 208.3125 266.15625 208.085938 266.246094 207.894531 C 267.089844 206.109375 266.679688 204.574219 265.007812 203.28125 C 264.808594 203.125 264.730469 202.859375 264.816406 202.621094 C 265.144531 201.699219 265.179688 200.804688 264.921875 199.9375 C 264.859375 199.722656 264.683594 199.515625 264.433594 199.359375 C 263.417969 198.714844 263.058594 197.757812 263.359375 196.488281 C 263.667969 195.15625 263.296875 194.261719 262.25 193.792969 C 261.757812 193.578125 261.496094 193.039062 261.632812 192.515625 C 262.113281 190.699219 261.652344 189.417969 260.257812 188.667969 C 259.882812 188.464844 259.710938 188.023438 259.851562 187.625 C 260.46875 185.863281 259.917969 184.34375 258.199219 183.070312 C 258.007812 182.929688 257.9375 182.671875 258.039062 182.453125 C 258.78125 180.875 258.414062 179.425781 256.929688 178.109375 C 256.609375 177.824219 256.492188 177.367188 256.628906 176.953125 C 257.183594 175.332031 256.769531 173.914062 255.386719 172.707031 C 255.203125 172.546875 255.101562 172.304688 255.109375 172.054688 C 255.179688 170.613281 254.640625 168.941406 253.492188 167.042969 C 253.308594 166.730469 253.242188 166.367188 253.3125 166.015625 C 253.671875 164.15625 252.902344 162.921875 251.011719 162.316406 C 250.917969 162.785156 250.671875 163.050781 250.277344 163.113281 C 249.691406 163.199219 249.378906 163.253906 249.339844 163.273438 C 248.648438 163.621094 248.449219 164.164062 248.746094 164.894531 C 248.976562 165.453125 249.097656 165.757812 249.121094 165.804688 C 249.414062 166.695312 249.789062 167.316406 250.246094 167.667969 C 250.8125 168.097656 251.03125 168.847656 250.789062 169.515625 C 250.238281 171.007812 250.46875 171.90625 251.480469 172.207031 C 252.171875 172.417969 252.597656 173.105469 252.480469 173.8125 C 252.210938 175.472656 252.460938 176.796875 253.230469 177.789062 C 253.363281 177.960938 253.617188 178.070312 253.914062 178.089844 C 254.558594 178.128906 254.730469 178.46875 254.417969 179.113281 C 253.480469 181.046875 254.023438 182.472656 256.046875 183.394531 C 256.058594 183.402344 256.074219 183.40625 256.085938 183.414062 C 256.113281 183.429688 256.132812 183.457031 256.160156 183.476562 C 256.191406 183.503906 256.222656 183.523438 256.25 183.554688 C 256.277344 183.585938 256.292969 183.617188 256.308594 183.652344 C 256.328125 183.683594 256.351562 183.714844 256.363281 183.75 C 256.375 183.789062 256.375 183.824219 256.382812 183.863281 C 256.386719 183.902344 256.394531 183.9375 256.390625 183.976562 C 256.390625 184.015625 256.375 184.050781 256.363281 184.09375 C 256.355469 184.125 256.355469 184.15625 256.339844 184.1875 C 256.335938 184.199219 256.328125 184.210938 256.324219 184.222656 C 255.5 185.710938 255.558594 186.871094 256.503906 187.707031 C 256.929688 188.085938 257.203125 189.035156 257.316406 190.554688 C 257.417969 191.9375 257.976562 193.085938 258.984375 194.003906 C 259.167969 194.167969 259.246094 194.417969 259.179688 194.648438 C 258.703125 196.421875 259.191406 197.828125 260.644531 198.871094 C 260.835938 199.011719 260.921875 199.257812 260.863281 199.488281 C 260.453125 201.125 260.847656 202.546875 262.050781 203.75 C 262.230469 203.929688 262.308594 204.183594 262.261719 204.425781 C 261.9375 206.109375 262.386719 207.503906 263.613281 208.609375 C 263.914062 208.878906 264.074219 209.128906 264.101562 209.355469 C 264.128906 209.585938 264.101562 209.808594 264.019531 210.03125 C 263.917969 210.3125 263.867188 210.527344 263.867188 210.675781 C 263.882812 211.796875 264.292969 212.746094 265.101562 213.523438 C 265.292969 213.707031 265.40625 213.949219 265.421875 214.207031 C 265.515625 215.671875 265.824219 217.078125 266.339844 218.429688 C 267.164062 220.578125 267.589844 221.683594 267.609375 221.75 C 268.214844 223.667969 268.855469 225.613281 269.519531 227.582031 C 269.539062 227.628906 269.546875 227.675781 269.546875 227.722656 C 269.546875 227.730469 269.542969 227.734375 269.542969 227.742188 C 269.542969 227.773438 269.53125 227.804688 269.527344 227.832031 C 269.519531 227.859375 269.515625 227.886719 269.503906 227.910156 C 269.496094 227.933594 269.476562 227.957031 269.460938 227.980469 C 269.445312 228.003906 269.429688 228.03125 269.410156 228.050781 C 269.390625 228.070312 269.367188 228.078125 269.34375 228.097656 C 269.316406 228.113281 269.292969 228.132812 269.261719 228.144531 C 269.257812 228.148438 269.253906 228.152344 269.246094 228.15625 C 269.203125 228.171875 269.15625 228.179688 269.109375 228.179688 C 250.335938 228.492188 231.753906 228.496094 213.371094 228.1875 C 213.308594 228.1875 213.242188 228.171875 213.183594 228.152344 C 213.175781 228.148438 213.171875 228.144531 213.164062 228.140625 C 213.125 228.125 213.089844 228.097656 213.054688 228.074219 C 213.027344 228.054688 212.996094 228.039062 212.96875 228.015625 C 212.941406 227.988281 212.925781 227.957031 212.902344 227.925781 C 212.882812 227.894531 212.859375 227.863281 212.839844 227.828125 C 212.828125 227.796875 212.824219 227.765625 212.816406 227.730469 C 212.804688 227.6875 212.792969 227.648438 212.792969 227.605469 C 212.792969 227.597656 212.789062 227.59375 212.789062 227.585938 C 212.789062 227.519531 212.800781 227.457031 212.824219 227.398438 C 213.804688 224.753906 214.710938 222.082031 215.535156 219.375 C 215.554688 219.316406 215.871094 218.628906 216.484375 217.316406 C 216.816406 216.605469 216.910156 215.835938 216.769531 215.003906 C 216.722656 214.753906 216.792969 214.496094 216.957031 214.304688 C 218.085938 212.992188 218.597656 211.453125 218.496094 209.683594 C 218.480469 209.425781 218.574219 209.171875 218.757812 208.984375 C 219.929688 207.769531 220.351562 206.316406 220.027344 204.628906 C 219.980469 204.398438 220.085938 204.15625 220.292969 204.019531 C 221.027344 203.53125 221.476562 202.871094 221.644531 202.042969 C 221.878906 200.898438 222 200.304688 222.011719 200.261719 C 223.042969 197.261719 224.164062 194.296875 225.378906 191.367188 C 225.46875 191.15625 225.492188 190.5625 225.453125 189.585938 C 225.441406 189.332031 225.527344 189.082031 225.699219 188.878906 C 226.625 187.769531 227.183594 186.5 227.375 185.0625 C 227.398438 184.867188 227.324219 184.605469 227.160156 184.335938 C 226.984375 184.035156 227.039062 183.78125 227.324219 183.589844 C 227.625 183.382812 227.796875 183.253906 227.847656 183.199219 C 229.023438 181.917969 229.292969 180.515625 228.660156 178.992188 C 228.597656 178.835938 228.640625 178.652344 228.765625 178.542969 C 230.378906 177.1875 231.070312 175.703125 230.851562 174.09375 C 230.796875 173.746094 230.894531 173.390625 231.117188 173.125 C 232.183594 171.820312 232.667969 170.328125 232.582031 168.640625 C 232.574219 168.382812 232.667969 168.136719 232.851562 167.964844 C 234.121094 166.796875 234.476562 165.386719 233.917969 163.734375 C 233.84375 163.519531 233.945312 163.285156 234.152344 163.1875 C 235.644531 162.476562 236.246094 161.222656 235.960938 159.429688 C 235.921875 159.191406 236.269531 158.476562 236.824219 157.648438 C 237.648438 156.417969 237.960938 154.980469 237.765625 153.34375 C 237.71875 152.960938 237.847656 152.574219 238.117188 152.292969 C 239.527344 150.785156 239.554688 149.308594 238.199219 147.867188 C 237.402344 147.777344 236.976562 147.402344 236.921875 146.734375 C 236.878906 146.253906 237.054688 145.816406 237.449219 145.433594 C 238.210938 144.691406 238.539062 145.421875 238.433594 147.628906 C 239.640625 148.230469 240.664062 147.730469 241.503906 146.125 C 241.632812 145.875 241.566406 145.800781 241.308594 145.902344 C 239.007812 146.78125 238.261719 146.128906 239.070312 143.941406 C 239.152344 143.710938 239.167969 143.449219 239.117188 143.160156 C 239.007812 142.527344 239.144531 142.003906 239.523438 141.59375 C 239.546875 141.566406 239.578125 141.542969 239.613281 141.527344 C 239.644531 141.515625 239.675781 141.511719 239.710938 141.511719 C 239.710938 141.511719 239.714844 141.511719 239.714844 141.511719 C 239.789062 141.511719 239.863281 141.546875 239.917969 141.601562 C 239.949219 141.628906 239.972656 141.660156 239.988281 141.699219 C 240.835938 143.582031 241.914062 145.316406 243.226562 146.90625 C 243.390625 147.105469 243.480469 147.363281 243.480469 147.632812 C 243.480469 149.535156 244.128906 151.136719 245.425781 152.433594 C 245.609375 152.609375 245.691406 152.867188 245.652344 153.125 C 245.328125 155.113281 245.917969 156.664062 247.425781 157.777344 C 247.609375 157.914062 247.675781 158.160156 247.578125 158.363281 C 246.648438 160.394531 247.257812 161.796875 249.410156 162.5625 C 249.589844 162.621094 249.832031 162.542969 250.046875 162.359375 C 250.246094 162.179688 250.5 162.09375 250.808594 162.105469 C 252.140625 160.652344 252.121094 159.371094 250.761719 158.257812 C 249.871094 157.535156 249.609375 156.816406 249.980469 156.101562 C 250.117188 155.835938 250.167969 155.574219 250.125 155.378906 C 249.847656 154.054688 249.226562 152.921875 248.253906 151.976562 C 248.09375 151.816406 248.007812 151.570312 248.015625 151.300781 L 248.132812 148.890625 C 248.140625 148.675781 248 148.445312 247.765625 148.289062 C 246.597656 147.550781 246.234375 146.523438 246.667969 145.207031 C 246.75 144.949219 246.726562 144.671875 246.601562 144.433594 C 245.449219 142.304688 244.914062 140.59375 244.988281 139.296875 C 245.058594 138.179688 244.609375 137.753906 243.636719 138.019531 C 242.820312 138.238281 242.039062 138.675781 241.296875 139.339844 C 240.097656 140.414062 239.628906 140.207031 239.886719 138.730469 C 239.886719 138.722656 239.890625 138.71875 239.890625 138.714844 C 239.929688 138.480469 239.792969 138.261719 239.585938 138.230469 C 238.804688 138.113281 238.460938 138.515625 238.554688 139.445312 C 238.722656 141.136719 238.238281 142.429688 237.105469 143.316406 C 236.898438 143.480469 236.78125 143.71875 236.78125 143.96875 C 236.785156 145.859375 236.273438 147.570312 235.234375 149.09375 C 234.65625 149.9375 234.621094 150.847656 235.128906 151.820312 C 235.28125 152.109375 235.195312 152.46875 234.925781 152.660156 C 233.207031 153.824219 232.664062 155.195312 233.300781 156.765625 C 233.386719 156.988281 233.320312 157.238281 233.136719 157.375 C 231.476562 158.660156 230.996094 160.285156 231.695312 162.25 C 231.769531 162.46875 231.683594 162.710938 231.484375 162.828125 C 229.722656 163.898438 229.246094 165.40625 230.050781 167.351562 C 230.136719 167.550781 230.042969 167.78125 229.839844 167.882812 C 228.007812 168.765625 227.574219 170.25 228.546875 172.332031 C 228.546875 172.335938 228.550781 172.335938 228.550781 172.339844 C 228.632812 172.515625 228.550781 172.722656 228.375 172.800781 C 226.742188 173.546875 226.0625 175.070312 226.335938 177.382812 C 226.363281 177.648438 226.277344 177.910156 226.097656 178.109375 C 224.796875 179.5 224.269531 181.1875 224.519531 183.160156 C 224.558594 183.488281 224.386719 183.804688 224.089844 183.949219 C 222.863281 184.546875 222.46875 185.730469 222.902344 187.507812 C 222.996094 187.878906 222.855469 188.269531 222.550781 188.5 C 221.136719 189.542969 220.699219 190.8125 221.234375 192.316406 C 221.40625 192.800781 221.210938 193.335938 220.769531 193.601562 C 219.328125 194.472656 218.875 195.832031 219.414062 197.679688 C 219.507812 198 219.363281 198.347656 219.0625 198.507812 C 217.789062 199.191406 217.226562 200.515625 217.378906 202.480469 C 217.414062 202.953125 217.253906 203.417969 216.929688 203.765625 C 215.667969 205.164062 215.300781 206.652344 215.832031 208.222656 C 215.902344 208.4375 215.816406 208.675781 215.621094 208.800781 C 214.203125 209.660156 213.703125 211.089844 214.113281 213.097656 C 214.164062 213.347656 214.070312 213.605469 213.871094 213.773438 C 212.949219 214.507812 212.332031 215.4375 212.03125 216.554688 Z M 272.390625 225.976562 C 272.78125 226.917969 272.589844 227.894531 271.957031 228.15625 C 271.324219 228.417969 270.496094 227.871094 270.105469 226.929688 C 269.714844 225.988281 269.90625 225.011719 270.539062 224.746094 C 271.167969 224.484375 271.996094 225.035156 272.390625 225.976562 Z M 249.941406 165.808594 C 249.613281 164.804688 249.859375 163.824219 250.492188 163.617188 C 251.125 163.414062 251.902344 164.058594 252.230469 165.0625 C 252.558594 166.066406 252.3125 167.046875 251.679688 167.253906 C 251.046875 167.460938 250.269531 166.8125 249.941406 165.808594 Z M 251.5625 170.640625 C 251.3125 169.59375 251.695312 168.601562 252.417969 168.433594 C 253.140625 168.261719 253.925781 168.976562 254.171875 170.023438 C 254.421875 171.074219 254.039062 172.0625 253.316406 172.234375 C 252.59375 172.402344 251.808594 171.691406 251.5625 170.640625 Z M 253.128906 175.578125 C 252.945312 174.484375 253.410156 173.492188 254.167969 173.363281 C 254.921875 173.234375 255.6875 174.019531 255.875 175.113281 C 256.058594 176.207031 255.59375 177.199219 254.835938 177.328125 C 254.082031 177.457031 253.316406 176.671875 253.128906 175.578125 Z M 254.980469 181.050781 C 254.601562 180.113281 254.847656 179.128906 255.523438 178.855469 C 256.203125 178.582031 257.0625 179.121094 257.441406 180.054688 C 257.820312 180.992188 257.578125 181.976562 256.898438 182.25 C 256.21875 182.523438 255.359375 181.988281 254.980469 181.050781 Z M 256.882812 186.527344 C 256.617188 185.472656 256.925781 184.488281 257.566406 184.328125 C 258.207031 184.167969 258.9375 184.894531 259.203125 185.949219 C 259.464844 187.003906 259.160156 187.992188 258.519531 188.148438 C 257.878906 188.3125 257.144531 187.582031 256.882812 186.527344 Z M 258.203125 191.476562 C 258 190.414062 258.417969 189.4375 259.140625 189.300781 C 259.859375 189.164062 260.605469 189.914062 260.808594 190.976562 C 261.011719 192.042969 260.59375 193.015625 259.875 193.152344 C 259.152344 193.289062 258.40625 192.539062 258.203125 191.476562 Z M 259.917969 196.355469 C 259.667969 195.359375 260.023438 194.410156 260.710938 194.238281 C 261.398438 194.0625 262.160156 194.734375 262.414062 195.730469 C 262.664062 196.726562 262.308594 197.679688 261.621094 197.851562 C 260.933594 198.023438 260.171875 197.355469 259.921875 196.355469 Z M 261.683594 201.488281 C 261.398438 200.554688 261.699219 199.636719 262.351562 199.441406 C 263.007812 199.242188 263.765625 199.835938 264.050781 200.769531 C 264.332031 201.703125 264.035156 202.621094 263.378906 202.816406 C 262.726562 203.015625 261.96875 202.421875 261.683594 201.488281 Z M 263.261719 206.558594 C 262.890625 205.589844 263.074219 204.617188 263.675781 204.386719 C 264.273438 204.15625 265.0625 204.757812 265.433594 205.726562 C 265.804688 206.695312 265.621094 207.667969 265.023438 207.898438 C 264.421875 208.128906 263.632812 207.527344 263.261719 206.558594 Z M 264.96875 211.769531 C 264.652344 210.808594 264.902344 209.863281 265.527344 209.660156 C 266.148438 209.453125 266.910156 210.066406 267.226562 211.027344 C 267.542969 211.988281 267.292969 212.929688 266.667969 213.136719 C 266.046875 213.34375 265.285156 212.730469 264.96875 211.769531 Z M 266.5625 216.769531 C 266.378906 215.683594 266.769531 214.710938 267.433594 214.597656 C 268.097656 214.484375 268.785156 215.273438 268.96875 216.359375 C 269.152344 217.445312 268.761719 218.417969 268.097656 218.53125 C 267.433594 218.640625 266.746094 217.851562 266.5625 216.769531 Z M 268.273438 222.09375 C 267.980469 221.105469 268.285156 220.136719 268.953125 219.9375 C 269.625 219.738281 270.410156 220.378906 270.707031 221.367188 C 271 222.359375 270.695312 223.324219 270.023438 223.523438 C 269.355469 223.726562 268.570312 223.085938 268.273438 222.09375 Z M 250.535156 159.476562 C 250.871094 160.355469 250.597656 161.273438 249.925781 161.53125 C 249.253906 161.785156 248.4375 161.28125 248.101562 160.40625 C 247.769531 159.527344 248.042969 158.609375 248.714844 158.351562 C 249.382812 158.097656 250.203125 158.601562 250.535156 159.476562 Z M 248.949219 154.402344 C 249.234375 155.359375 248.925781 156.292969 248.261719 156.492188 C 247.597656 156.6875 246.832031 156.070312 246.546875 155.113281 C 246.265625 154.15625 246.570312 153.222656 247.234375 153.027344 C 247.898438 152.828125 248.667969 153.445312 248.949219 154.402344 Z M 247.011719 149.226562 C 247.320312 150.234375 247.046875 151.207031 246.402344 151.40625 C 245.757812 151.601562 244.984375 150.945312 244.675781 149.941406 C 244.371094 148.933594 244.644531 147.960938 245.289062 147.761719 C 245.933594 147.566406 246.707031 148.21875 247.011719 149.226562 Z M 244.675781 142.9375 C 245.617188 143.671875 245.785156 144.632812 245.179688 145.816406 C 244.957031 146.253906 244.417969 146.421875 243.980469 146.195312 C 243.875 146.140625 243.78125 146.070312 243.707031 145.976562 C 242.117188 144.097656 242.195312 143.019531 243.945312 142.75 C 244.210938 142.710938 244.472656 142.78125 244.675781 142.9375 Z M 242.285156 140.222656 C 242.851562 139.871094 243.519531 139.929688 243.785156 140.355469 C 244.046875 140.777344 243.804688 141.40625 243.238281 141.757812 C 242.675781 142.109375 242.003906 142.050781 241.738281 141.628906 C 241.476562 141.203125 241.71875 140.578125 242.285156 140.222656 Z M 212.03125 226.859375 C 211.722656 227.71875 210.984375 228.234375 210.382812 228.015625 C 209.78125 227.800781 209.550781 226.925781 209.859375 226.070312 C 210.171875 225.210938 210.910156 224.695312 211.511719 224.914062 C 212.109375 225.132812 212.34375 226.003906 212.03125 226.859375 Z M 213.710938 222.378906 C 213.253906 223.199219 212.402344 223.59375 211.808594 223.261719 C 211.21875 222.933594 211.109375 222 211.566406 221.179688 C 212.023438 220.359375 212.875 219.964844 213.46875 220.296875 C 214.0625 220.625 214.167969 221.558594 213.710938 222.378906 Z M 235.875 150.433594 C 235.980469 149.445312 236.558594 148.699219 237.171875 148.761719 C 237.785156 148.828125 238.195312 149.679688 238.09375 150.667969 C 237.988281 151.65625 237.40625 152.402344 236.796875 152.339844 C 236.183594 152.273438 235.769531 151.421875 235.875 150.433594 Z M 234.125 155.3125 C 234.285156 154.289062 235 153.546875 235.722656 153.65625 C 236.445312 153.769531 236.90625 154.6875 236.75 155.714844 C 236.589844 156.742188 235.875 157.484375 235.152344 157.375 C 234.429688 157.261719 233.96875 156.339844 234.125 155.3125 Z M 233.757812 158.589844 C 234.535156 158.609375 235.144531 159.433594 235.121094 160.429688 C 235.097656 161.429688 234.445312 162.222656 233.671875 162.203125 C 232.894531 162.183594 232.28125 161.359375 232.304688 160.363281 C 232.332031 159.367188 232.980469 158.574219 233.757812 158.589844 Z M 232.109375 163.855469 C 232.335938 163.761719 232.59375 163.839844 232.726562 164.042969 C 233.617188 165.394531 233.367188 166.460938 231.980469 167.242188 C 231.777344 167.351562 231.515625 167.300781 231.351562 167.117188 C 230.132812 165.675781 230.382812 164.589844 232.109375 163.855469 Z M 229.152344 170.109375 C 229.40625 169.089844 230.125 168.390625 230.757812 168.550781 C 231.390625 168.707031 231.695312 169.664062 231.4375 170.683594 C 231.183594 171.703125 230.464844 172.402344 229.832031 172.242188 C 229.199219 172.085938 228.894531 171.128906 229.152344 170.109375 Z M 227.445312 175.160156 C 227.945312 174.269531 228.816406 173.804688 229.386719 174.125 C 229.960938 174.445312 230.019531 175.429688 229.515625 176.324219 C 229.015625 177.21875 228.144531 177.683594 227.574219 177.359375 C 227 177.039062 226.945312 176.054688 227.445312 175.160156 Z M 225.625 180.03125 C 226.125 179.136719 226.804688 178.914062 227.667969 179.363281 C 227.894531 179.480469 228.050781 179.710938 228.082031 179.972656 C 228.222656 181.105469 227.832031 181.945312 226.902344 182.488281 C 226.683594 182.617188 226.40625 182.613281 226.1875 182.480469 C 225.238281 181.875 225.050781 181.0625 225.625 180.03125 Z M 223.972656 185.597656 C 224.328125 184.589844 225.101562 183.949219 225.699219 184.160156 C 226.296875 184.371094 226.492188 185.355469 226.136719 186.363281 C 225.78125 187.367188 225.007812 188.007812 224.410156 187.796875 C 223.816406 187.585938 223.617188 186.601562 223.972656 185.597656 Z M 222.089844 190.816406 C 222.300781 189.816406 223.03125 189.128906 223.722656 189.273438 C 224.410156 189.417969 224.800781 190.347656 224.585938 191.347656 C 224.375 192.34375 223.644531 193.03125 222.953125 192.886719 C 222.265625 192.738281 221.878906 191.8125 222.089844 190.816406 Z M 220.394531 195.59375 C 220.773438 194.660156 221.59375 194.113281 222.226562 194.371094 C 222.859375 194.628906 223.066406 195.597656 222.683594 196.527344 C 222.304688 197.460938 221.484375 198.003906 220.851562 197.75 C 220.21875 197.492188 220.015625 196.523438 220.394531 195.59375 Z M 218.585938 200.800781 C 218.929688 199.777344 219.746094 199.128906 220.40625 199.351562 C 221.066406 199.574219 221.320312 200.582031 220.976562 201.605469 C 220.636719 202.625 219.820312 203.273438 219.160156 203.054688 C 218.5 202.832031 218.242188 201.824219 218.585938 200.800781 Z M 216.769531 206.078125 C 216.964844 205.035156 217.648438 204.289062 218.296875 204.410156 C 218.945312 204.53125 219.3125 205.472656 219.121094 206.515625 C 218.925781 207.558594 218.238281 208.304688 217.589844 208.183594 C 216.941406 208.0625 216.574219 207.121094 216.769531 206.078125 Z M 215.132812 211.023438 C 215.421875 210.082031 216.15625 209.472656 216.769531 209.664062 C 217.386719 209.855469 217.648438 210.769531 217.355469 211.710938 C 217.0625 212.652344 216.332031 213.257812 215.714844 213.070312 C 215.101562 212.878906 214.839844 211.960938 215.132812 211.023438 Z M 215.398438 214.851562 C 215.902344 215.113281 215.855469 216.195312 215.296875 217.261719 C 214.738281 218.328125 213.878906 218.980469 213.378906 218.71875 C 212.875 218.453125 212.921875 217.375 213.480469 216.308594 C 214.039062 215.242188 214.898438 214.589844 215.398438 214.851562 Z M 215.398438 214.851562 " fill-opacity="1" fill-rule="nonzero"/><path fill="#edd7b5" d="M 256.375 183.871094 C 256.378906 183.910156 256.390625 183.945312 256.386719 183.984375 C 256.390625 183.945312 256.378906 183.910156 256.375 183.871094 Z M 256.375 183.871094 " fill-opacity="1" fill-rule="nonzero"/><path fill="#edd7b5" d="M 269.402344 228.058594 C 269.382812 228.074219 269.359375 228.085938 269.335938 228.101562 C 269.359375 228.089844 269.382812 228.074219 269.402344 228.058594 Z M 269.402344 228.058594 " fill-opacity="1" fill-rule="nonzero"/><path fill="#edd7b5" d="M 213.15625 228.144531 C 213.113281 228.128906 213.082031 228.105469 213.046875 228.078125 C 213.082031 228.105469 213.113281 228.128906 213.15625 228.144531 Z M 213.15625 228.144531 " fill-opacity="1" fill-rule="nonzero"/><path fill="#edd7b5" d="M 212.78125 227.59375 C 212.78125 227.597656 212.789062 227.605469 212.789062 227.613281 C 212.789062 227.542969 212.792969 227.472656 212.820312 227.40625 C 212.796875 227.464844 212.785156 227.527344 212.78125 227.59375 Z M 212.78125 227.59375 " fill-opacity="1" fill-rule="nonzero"/><path fill="#edd7b5" d="M 256.304688 183.660156 C 256.324219 183.691406 256.34375 183.722656 256.359375 183.757812 C 256.347656 183.722656 256.324219 183.691406 256.304688 183.660156 Z M 256.304688 183.660156 " fill-opacity="1" fill-rule="nonzero"/><path fill="#edd7b5" d="M 269.5 227.917969 C 269.488281 227.945312 269.46875 227.96875 269.453125 227.988281 C 269.46875 227.96875 269.488281 227.945312 269.5 227.917969 Z M 269.5 227.917969 " fill-opacity="1" fill-rule="nonzero"/><path fill="#edd7b5" d="M 269.535156 227.75 C 269.535156 227.78125 269.527344 227.8125 269.519531 227.839844 C 269.527344 227.808594 269.535156 227.78125 269.535156 227.75 Z M 269.535156 227.75 " fill-opacity="1" fill-rule="nonzero"/><path fill="#edd7b5" d="M 269.238281 228.160156 C 269.238281 228.160156 269.246094 228.152344 269.253906 228.148438 C 269.207031 228.167969 269.152344 228.183594 269.097656 228.183594 C 269.144531 228.183594 269.195312 228.175781 269.238281 228.160156 Z M 269.238281 228.160156 " fill-opacity="1" fill-rule="nonzero"/><path fill="#edd7b5" d="M 212.835938 227.835938 C 212.820312 227.804688 212.816406 227.769531 212.808594 227.734375 C 212.816406 227.769531 212.820312 227.804688 212.835938 227.835938 Z M 212.835938 227.835938 " fill-opacity="1" fill-rule="nonzero"/><path fill="#edd7b5" d="M 212.960938 228.019531 C 212.933594 227.992188 212.917969 227.960938 212.894531 227.929688 C 212.917969 227.960938 212.933594 227.996094 212.960938 228.019531 Z M 212.960938 228.019531 " fill-opacity="1" fill-rule="nonzero"/><path fill="#edd7b5" d="M 256.335938 184.195312 C 256.351562 184.164062 256.351562 184.128906 256.359375 184.097656 C 256.347656 184.144531 256.339844 184.1875 256.316406 184.230469 C 256.324219 184.21875 256.332031 184.207031 256.335938 184.195312 Z M 256.335938 184.195312 " fill-opacity="1" fill-rule="nonzero"/><path fill="#edd7b5" d="M 256.152344 183.484375 C 256.183594 183.507812 256.21875 183.53125 256.246094 183.5625 C 256.21875 183.53125 256.183594 183.507812 256.152344 183.484375 Z M 256.152344 183.484375 " fill-opacity="1" fill-rule="nonzero"/><path fill="#edd7b5" d="M 273.917969 177.484375 C 273.78125 177.515625 273.699219 177.652344 273.730469 177.785156 C 275.367188 184.515625 277.910156 189.910156 281.363281 193.96875 C 284.226562 197.332031 287.75 199.707031 291.941406 201.089844 C 293.464844 201.585938 294.125 200.925781 293.925781 199.101562 C 293.789062 197.867188 294.070312 197.527344 294.769531 198.085938 L 295.144531 197.851562 C 294.617188 197.257812 294.28125 196.457031 294.128906 195.441406 C 293.589844 191.804688 291.945312 188.636719 289.195312 185.929688 C 284.921875 181.710938 279.867188 178.894531 274.039062 177.484375 C 274 177.472656 273.957031 177.472656 273.917969 177.480469 Z M 273.917969 177.484375 " fill-opacity="1" fill-rule="nonzero"/><path fill="#edd7b5" d="M 80.066406 200.824219 C 80.183594 201.226562 80.605469 201.460938 81.007812 201.339844 C 87.082031 199.589844 91.761719 195.8125 95.050781 190.007812 C 97.199219 186.214844 98.820312 182.210938 99.914062 177.988281 C 99.925781 177.949219 99.925781 177.910156 99.917969 177.867188 C 99.886719 177.738281 99.753906 177.65625 99.621094 177.6875 C 93.382812 179.207031 88.078125 182.316406 83.707031 187.011719 C 80.261719 190.710938 79.042969 195.289062 80.042969 200.746094 C 80.050781 200.773438 80.054688 200.796875 80.0625 200.824219 Z M 80.066406 200.824219 " fill-opacity="1" fill-rule="nonzero"/><path fill="#edd7b5" d="M 68.679688 211.578125 C 69.421875 212.195312 70.171875 212.804688 70.933594 213.402344 C 71.9375 214.1875 72.386719 213.957031 72.285156 212.714844 C 72.246094 212.273438 72.269531 211.878906 72.347656 211.539062 C 73.992188 204.871094 73.652344 198.300781 71.332031 191.832031 C 69.910156 187.867188 68.164062 184.007812 66.097656 180.253906 C 65.964844 180.003906 65.828125 180 65.691406 180.242188 C 63.996094 183.210938 62.738281 186.261719 61.917969 189.398438 C 61.007812 192.886719 60.804688 196.125 61.308594 199.121094 C 62.125 204.046875 64.585938 208.199219 68.679688 211.578125 Z M 68.679688 211.578125 " fill-opacity="1" fill-rule="nonzero"/><path fill="#edd7b5" d="M 301.988281 213.4375 C 302.074219 213.589844 302.265625 213.640625 302.417969 213.554688 C 306.292969 211.367188 309.140625 208.421875 310.960938 204.71875 C 312.664062 201.269531 313.273438 197.421875 312.785156 193.179688 C 312.28125 188.808594 310.742188 184.5625 308.171875 180.4375 C 308.027344 180.199219 307.890625 180.207031 307.765625 180.453125 C 304.832031 186.050781 302.675781 191.742188 301.296875 197.523438 C 300.167969 202.273438 300.386719 207.550781 301.957031 213.359375 C 301.964844 213.386719 301.972656 213.414062 301.988281 213.433594 Z M 301.988281 213.4375 " fill-opacity="1" fill-rule="nonzero"/><path fill="#edd7b5" d="M 158.304688 283.425781 C 159.953125 283.578125 160.0625 283.515625 158.628906 283.238281 C 153.40625 282.226562 148.171875 281.28125 142.925781 280.390625 C 133.523438 278.789062 124.453125 276.101562 115.707031 272.324219 C 103.132812 266.902344 93.269531 258.636719 86.113281 247.523438 C 83.105469 242.847656 80.78125 237.96875 79.140625 232.878906 C 75.53125 221.65625 75.292969 210.105469 78.433594 198.234375 C 78.5625 197.734375 78.503906 197.601562 78.253906 197.835938 C 78.191406 197.894531 78.140625 197.972656 78.109375 198.070312 C 72.941406 213.097656 73.742188 227.761719 80.515625 242.066406 C 84.019531 249.464844 88.960938 256.042969 95.34375 261.804688 C 102.65625 268.410156 110.738281 273.34375 119.597656 276.605469 C 130.695312 280.691406 143.035156 282.929688 156.609375 283.320312 C 157.164062 283.335938 157.730469 283.371094 158.304688 283.425781 Z M 158.304688 283.425781 " fill-opacity="1" fill-rule="nonzero"/><path fill="#edd7b5" d="M 82.261719 233.644531 C 82.320312 233.730469 82.394531 233.808594 82.476562 233.871094 C 82.941406 234.230469 83.609375 234.140625 83.96875 233.675781 C 91.074219 224.421875 92.777344 214.179688 89.078125 202.945312 C 89.0625 202.894531 89.039062 202.851562 89 202.816406 C 88.875 202.6875 88.664062 202.6875 88.535156 202.8125 C 84.980469 206.324219 82.296875 210.246094 80.488281 214.578125 C 79.066406 217.984375 78.476562 221.175781 78.714844 224.148438 C 78.988281 227.554688 80.171875 230.71875 82.261719 233.644531 Z M 82.261719 233.644531 " fill-opacity="1" fill-rule="nonzero"/><path fill="#edd7b5" d="M 291.085938 234.589844 C 291.269531 234.703125 291.511719 234.644531 291.628906 234.457031 C 296.328125 226.621094 296.21875 218.851562 291.296875 211.15625 C 289.410156 208.199219 287.050781 205.394531 284.21875 202.742188 C 284.175781 202.703125 284.125 202.671875 284.066406 202.65625 C 283.871094 202.605469 283.667969 202.71875 283.617188 202.914062 C 280.203125 215.238281 282.667969 225.777344 291.011719 234.53125 C 291.035156 234.554688 291.058594 234.574219 291.085938 234.59375 Z M 291.085938 234.589844 " fill-opacity="1" fill-rule="nonzero"/><g clip-path="url(#5c24b6d4a2)"><path fill="#edd7b5" d="M 66.253906 240.648438 C 69.964844 243.902344 74.304688 245.5625 79.273438 245.628906 C 79.300781 245.628906 79.328125 245.628906 79.355469 245.617188 C 79.515625 245.574219 79.609375 245.40625 79.566406 245.246094 C 76.15625 233.410156 68.683594 224.6875 57.140625 219.070312 C 56.890625 218.949219 56.785156 219.023438 56.816406 219.300781 C 57.375 223.507812 58.265625 227.308594 59.484375 230.699219 C 60.890625 234.605469 63.148438 237.921875 66.253906 240.648438 Z M 66.253906 240.648438 " fill-opacity="1" fill-rule="nonzero"/></g><g clip-path="url(#508695df56)"><path fill="#edd7b5" d="M 317.519531 218.964844 C 311.597656 221.882812 306.496094 225.824219 302.214844 230.789062 C 298.765625 234.78125 296.324219 239.664062 294.882812 245.441406 C 294.878906 245.46875 294.875 245.496094 294.875 245.527344 C 294.878906 245.695312 295.023438 245.832031 295.195312 245.824219 C 300.722656 245.539062 305.34375 243.683594 309.066406 240.261719 C 311.609375 237.917969 313.703125 234.734375 315.347656 230.707031 C 316.800781 227.148438 317.738281 223.382812 318.15625 219.40625 C 318.214844 218.875 318.003906 218.726562 317.519531 218.96875 Z M 317.519531 218.964844 " fill-opacity="1" fill-rule="nonzero"/></g><path fill="#edd7b5" d="M 89.386719 231.726562 C 89.09375 231.507812 88.929688 231.582031 88.898438 231.945312 C 88.609375 234.628906 88.570312 237.289062 88.785156 239.917969 C 89.039062 243.082031 89.449219 245.691406 90.019531 247.753906 C 91.144531 251.78125 93.316406 255.253906 96.535156 258.171875 C 98.46875 259.917969 100.59375 261.375 102.917969 262.546875 C 102.945312 262.5625 102.976562 262.570312 103.007812 262.574219 C 103.160156 262.589844 103.296875 262.472656 103.316406 262.320312 C 103.832031 257.582031 103.699219 253.597656 102.917969 250.367188 C 102.277344 247.707031 100.9375 244.84375 98.898438 241.773438 C 96.289062 237.828125 93.117188 234.480469 89.386719 231.726562 Z M 89.386719 231.726562 " fill-opacity="1" fill-rule="nonzero"/><path fill="#edd7b5" d="M 280.734375 234.539062 C 278.691406 236.804688 276.828125 239.21875 275.152344 241.78125 C 271.230469 247.78125 269.792969 254.632812 270.839844 262.335938 C 270.847656 262.402344 270.871094 262.46875 270.902344 262.527344 C 271.050781 262.820312 271.410156 262.933594 271.703125 262.78125 C 277.089844 259.976562 280.804688 256 282.851562 250.847656 C 283.824219 248.390625 284.359375 245.289062 284.453125 241.554688 C 284.535156 238.507812 284.410156 235.339844 284.078125 232.050781 C 284.035156 231.628906 283.851562 231.558594 283.53125 231.839844 C 282.371094 232.859375 281.4375 233.757812 280.734375 234.542969 Z M 280.734375 234.539062 " fill-opacity="1" fill-rule="nonzero"/><path fill="#edd7b5" d="M 108.164062 251.332031 C 108.132812 251.320312 108.09375 251.3125 108.058594 251.3125 C 107.921875 251.320312 107.8125 251.441406 107.816406 251.585938 C 107.964844 254.335938 108.570312 257.386719 109.628906 260.738281 C 110.492188 263.472656 111.722656 265.847656 113.324219 267.859375 C 114.765625 269.683594 116.527344 271.109375 118.613281 272.121094 C 120.691406 273.136719 122.933594 273.75 125.339844 273.960938 C 125.355469 273.960938 125.371094 273.960938 125.382812 273.960938 C 125.582031 273.960938 125.75 273.792969 125.746094 273.585938 C 125.746094 268.128906 123.984375 263.492188 120.457031 259.671875 C 117.367188 256.320312 113.269531 253.539062 108.164062 251.332031 Z M 108.164062 251.332031 " fill-opacity="1" fill-rule="nonzero"/><path fill="#edd7b5" d="M 265.683594 251.742188 C 260.328125 253.964844 256.097656 257.082031 252.992188 261.097656 C 250.121094 264.804688 248.644531 269.078125 248.5625 273.921875 C 248.5625 273.941406 248.5625 273.960938 248.570312 273.984375 C 248.601562 274.191406 248.792969 274.335938 248.996094 274.304688 C 256.550781 273.234375 261.535156 269.351562 263.941406 262.652344 C 265.183594 259.195312 265.882812 255.640625 266.042969 251.984375 C 266.042969 251.949219 266.035156 251.910156 266.023438 251.875 C 265.96875 251.746094 265.816406 251.6875 265.683594 251.742188 Z M 265.683594 251.742188 " fill-opacity="1" fill-rule="nonzero"/><path fill="#edd7b5" d="M 96.277344 266.117188 C 96.324219 266.097656 96.371094 266.070312 96.40625 266.03125 C 96.574219 265.871094 96.578125 265.601562 96.417969 265.433594 C 94.605469 263.566406 92.675781 261.933594 90.632812 260.527344 C 88.625 259.148438 86.378906 258.027344 83.894531 257.160156 C 77.128906 254.804688 69.929688 254.132812 62.300781 255.140625 C 61.628906 255.230469 61.535156 255.511719 62.023438 255.96875 C 64.539062 258.347656 67.011719 260.523438 69.4375 262.503906 C 77.46875 269.074219 86.417969 270.277344 96.28125 266.117188 Z M 96.277344 266.117188 " fill-opacity="1" fill-rule="nonzero"/><path fill="#edd7b5" d="M 175.945312 269.699219 C 176.203125 271.136719 177.058594 271.917969 178.507812 272.050781 C 182.363281 272.386719 186.453125 272.492188 190.777344 272.367188 C 190.804688 272.367188 191.488281 272.390625 192.835938 272.441406 C 194.332031 272.496094 195.519531 272.054688 196.390625 271.121094 C 197.285156 270.171875 197.722656 268.847656 197.695312 267.144531 C 197.660156 264.714844 196.640625 262.992188 194.636719 261.976562 C 193.585938 261.449219 191.796875 261.121094 189.265625 260.992188 C 185.238281 260.792969 182.765625 260.773438 181.84375 260.945312 C 177.027344 261.816406 175.058594 264.734375 175.945312 269.699219 Z M 175.945312 269.699219 " fill-opacity="1" fill-rule="nonzero"/><path fill="#edd7b5" d="M 117.066406 279.632812 C 105.914062 273.375 94.335938 272.671875 82.324219 277.53125 C 81.910156 277.695312 81.894531 277.894531 82.277344 278.128906 C 85.117188 279.878906 87.960938 281.425781 90.808594 282.765625 C 99.976562 287.078125 108.742188 286.199219 117.097656 280.128906 C 117.136719 280.101562 117.167969 280.070312 117.1875 280.027344 C 117.261719 279.886719 117.210938 279.707031 117.066406 279.632812 Z M 117.066406 279.632812 " fill-opacity="1" fill-rule="nonzero"/><path fill="#edd7b5" d="M 291.167969 277.386719 C 285.660156 275.125 279.9375 274.128906 273.992188 274.402344 C 267.972656 274.671875 262.550781 276.472656 257.71875 279.804688 C 257.679688 279.828125 257.648438 279.859375 257.621094 279.898438 C 257.492188 280.074219 257.53125 280.324219 257.710938 280.453125 C 262.203125 283.796875 267.007812 285.429688 272.128906 285.359375 C 275.050781 285.316406 278.371094 284.519531 282.085938 282.96875 C 285.308594 281.628906 288.359375 280.007812 291.234375 278.113281 C 291.667969 277.824219 291.644531 277.582031 291.167969 277.386719 Z M 291.167969 277.386719 " fill-opacity="1" fill-rule="nonzero"/><path fill="#edd7b5" d="M 190.695312 81.929688 C 190.695312 82.4375 190.597656 82.929688 190.402344 83.402344 C 190.207031 83.871094 189.929688 84.289062 189.566406 84.648438 C 189.207031 85.011719 188.792969 85.289062 188.320312 85.484375 C 187.847656 85.679688 187.359375 85.777344 186.847656 85.777344 C 186.335938 85.777344 185.847656 85.679688 185.375 85.484375 C 184.902344 85.289062 184.488281 85.011719 184.125 84.648438 C 183.765625 84.289062 183.488281 83.871094 183.292969 83.402344 C 183.097656 82.929688 183 82.4375 183 81.929688 C 183 81.417969 183.097656 80.925781 183.292969 80.457031 C 183.488281 79.984375 183.765625 79.570312 184.125 79.207031 C 184.488281 78.847656 184.902344 78.570312 185.375 78.375 C 185.847656 78.179688 186.335938 78.082031 186.847656 78.082031 C 187.359375 78.082031 187.847656 78.179688 188.320312 78.375 C 188.792969 78.570312 189.207031 78.847656 189.566406 79.207031 C 189.929688 79.570312 190.207031 79.984375 190.402344 80.457031 C 190.597656 80.925781 190.695312 81.417969 190.695312 81.929688 Z M 190.695312 81.929688 " fill-opacity="1" fill-rule="nonzero"/><path fill="#edd7b5" d="M 193.683594 117.625 C 193.683594 118.078125 193.636719 118.527344 193.550781 118.96875 C 193.460938 119.414062 193.328125 119.847656 193.15625 120.265625 C 192.984375 120.683594 192.769531 121.082031 192.519531 121.457031 C 192.265625 121.835938 191.980469 122.183594 191.660156 122.503906 C 191.339844 122.824219 190.992188 123.109375 190.613281 123.363281 C 190.238281 123.613281 189.839844 123.824219 189.421875 124 C 189.003906 124.171875 188.570312 124.304688 188.128906 124.390625 C 187.683594 124.480469 187.234375 124.523438 186.78125 124.523438 C 186.328125 124.523438 185.878906 124.480469 185.433594 124.390625 C 184.992188 124.304688 184.558594 124.171875 184.140625 124 C 183.722656 123.824219 183.324219 123.613281 182.949219 123.363281 C 182.570312 123.109375 182.222656 122.824219 181.902344 122.503906 C 181.582031 122.183594 181.296875 121.835938 181.042969 121.457031 C 180.792969 121.082031 180.578125 120.683594 180.40625 120.265625 C 180.234375 119.847656 180.101562 119.414062 180.011719 118.96875 C 179.925781 118.527344 179.882812 118.078125 179.882812 117.625 C 179.882812 117.171875 179.925781 116.722656 180.011719 116.277344 C 180.101562 115.832031 180.234375 115.402344 180.40625 114.984375 C 180.578125 114.566406 180.792969 114.167969 181.042969 113.789062 C 181.296875 113.414062 181.582031 113.066406 181.902344 112.746094 C 182.222656 112.425781 182.570312 112.136719 182.949219 111.886719 C 183.324219 111.636719 183.722656 111.421875 184.140625 111.25 C 184.558594 111.074219 184.992188 110.945312 185.433594 110.855469 C 185.878906 110.769531 186.328125 110.722656 186.78125 110.722656 C 187.234375 110.722656 187.683594 110.769531 188.128906 110.855469 C 188.570312 110.945312 189.003906 111.074219 189.421875 111.25 C 189.839844 111.421875 190.238281 111.636719 190.613281 111.886719 C 190.992188 112.136719 191.339844 112.425781 191.660156 112.746094 C 191.980469 113.066406 192.265625 113.414062 192.519531 113.789062 C 192.769531 114.167969 192.984375 114.566406 193.15625 114.984375 C 193.328125 115.402344 193.460938 115.832031 193.550781 116.277344 C 193.636719 116.722656 193.683594 117.171875 193.683594 117.625 Z M 193.683594 117.625 " fill-opacity="1" fill-rule="nonzero"/><path fill="#edd7b5" d="M 182.199219 258.378906 C 182.199219 258.671875 182.4375 258.910156 182.730469 258.910156 L 190.949219 258.910156 C 191.199219 258.910156 191.402344 258.707031 191.402344 258.453125 C 191.402344 222.621094 191.4375 186.972656 191.507812 151.507812 C 191.523438 143.101562 191.425781 134.753906 191.207031 126.472656 C 191.207031 126.417969 191.195312 126.363281 191.175781 126.316406 C 191.082031 126.089844 190.824219 125.988281 190.597656 126.082031 C 189.027344 126.714844 187.398438 126.992188 185.714844 126.910156 C 185.351562 126.890625 184.859375 126.765625 184.234375 126.535156 C 183.742188 126.359375 183.234375 126.234375 182.707031 126.171875 C 182.691406 126.167969 182.675781 126.167969 182.664062 126.167969 C 182.460938 126.167969 182.296875 126.332031 182.300781 126.535156 C 182.238281 143.8125 182.179688 161.085938 182.113281 178.355469 C 182.058594 193.410156 182.078125 208.460938 182.179688 223.515625 C 182.253906 235.027344 182.261719 246.644531 182.203125 258.371094 L 182.203125 258.378906 Z M 182.199219 258.378906 " fill-opacity="1" fill-rule="nonzero"/><path fill="#edd7b5" d="M 278.523438 264.847656 C 278.445312 264.917969 278.378906 265.003906 278.332031 265.097656 C 278.121094 265.511719 278.289062 266.015625 278.703125 266.222656 C 283.496094 268.597656 288.28125 269.289062 293.054688 268.289062 C 296.203125 267.628906 299.660156 265.929688 303.4375 263.195312 C 306.511719 260.96875 309.457031 258.402344 312.265625 255.5 C 312.460938 255.300781 312.417969 255.179688 312.144531 255.140625 C 299.109375 253.34375 287.902344 256.578125 278.523438 264.847656 Z M 278.523438 264.847656 " fill-opacity="1" fill-rule="nonzero"/><path fill="#edd7b5" d="M 167.816406 278.09375 L 167.816406 278.597656 C 167.8125 280.527344 169.371094 282.09375 171.300781 282.097656 L 201.730469 282.148438 C 203.65625 282.152344 205.222656 280.59375 205.226562 278.664062 L 205.226562 278.160156 C 205.230469 276.230469 203.671875 274.667969 201.742188 274.664062 L 171.3125 274.609375 C 169.386719 274.605469 167.820312 276.167969 167.816406 278.09375 Z M 167.816406 278.09375 " fill-opacity="1" fill-rule="nonzero"/><path fill="#edd7b5" d="M 139.101562 301.578125 L 234.421875 301.480469 C 235.195312 301.480469 235.261719 301.269531 234.609375 300.851562 C 225.859375 295.222656 217.214844 289.945312 208.667969 285.027344 C 207.5625 284.390625 206.078125 284.09375 204.21875 284.132812 C 191.605469 284.382812 179.183594 284.386719 166.953125 284.140625 C 166.292969 284.128906 165.648438 284.3125 165.097656 284.664062 L 138.964844 301.074219 C 138.429688 301.410156 138.480469 301.578125 139.101562 301.578125 Z M 139.101562 301.578125 " fill-opacity="1" fill-rule="nonzero"/><g clip-path="url(#a7928e7cb9)"><path fill="#edd7b5" d="M 140.273438 303.449219 L 233.417969 303.449219 C 233.757812 303.449219 234.082031 303.511719 234.394531 303.644531 C 234.707031 303.773438 234.980469 303.957031 235.222656 304.195312 C 235.460938 304.433594 235.644531 304.710938 235.773438 305.019531 C 235.902344 305.332031 235.96875 305.660156 235.96875 305.996094 L 235.96875 307.003906 C 235.96875 307.339844 235.902344 307.667969 235.773438 307.976562 C 235.644531 308.289062 235.460938 308.566406 235.222656 308.804688 C 234.980469 309.042969 234.707031 309.226562 234.394531 309.355469 C 234.082031 309.484375 233.757812 309.550781 233.417969 309.550781 L 140.273438 309.550781 C 139.933594 309.550781 139.609375 309.484375 139.296875 309.355469 C 138.988281 309.226562 138.710938 309.042969 138.472656 308.804688 C 138.234375 308.566406 138.050781 308.289062 137.921875 307.976562 C 137.789062 307.667969 137.726562 307.339844 137.726562 307.003906 L 137.726562 305.996094 C 137.726562 305.660156 137.789062 305.332031 137.921875 305.019531 C 138.050781 304.710938 138.234375 304.433594 138.472656 304.195312 C 138.710938 303.957031 138.988281 303.773438 139.296875 303.644531 C 139.609375 303.511719 139.933594 303.449219 140.273438 303.449219 Z M 140.273438 303.449219 " fill-opacity="1" fill-rule="nonzero"/></g></svg>